<?xml version="1.0" standalone="no"?>
<!DOCTYPE svg PUBLIC "-//W3C//DTD SVG 20010904//EN"
 "http://www.w3.org/TR/2001/REC-SVG-20010904/DTD/svg10.dtd">
<svg version="1.0" xmlns="http://www.w3.org/2000/svg"
 width="512.000000pt" height="512.000000pt" viewBox="0 0 512.000000 512.000000"
 preserveAspectRatio="xMidYMid meet">
<metadata>
Created by potrace 1.14, written by Peter Selinger 2001-2017
</metadata>
<g transform="translate(0.000000,512.000000) scale(0.100000,-0.100000)"
fill="#000000" stroke="none">
<path d="M1380 5069 c-442 -301 -738 -712 -868 -1206 -22 -80 -44 -137 -80
-200 -103 -179 -166 -333 -242 -588 -12 -40 -46 -211 -55 -275 -28 -194 -28
-536 0 -700 2 -14 6 -43 10 -65 3 -22 7 -47 10 -55 2 -8 6 -26 9 -40 42 -242
196 -608 357 -850 131 -196 327 -411 504 -551 71 -56 231 -169 240 -169 2 0
34 -18 70 -40 112 -69 284 -146 440 -199 83 -28 161 -52 175 -55 14 -2 68 -13
120 -24 194 -41 250 -46 500 -46 280 0 467 27 715 104 282 87 570 239 795 419
91 73 107 88 210 191 315 314 532 692 646 1130 9 36 18 74 19 86 2 11 8 45 14
76 28 132 39 279 36 483 -1 116 -5 226 -9 245 -4 19 -11 67 -17 105 -145 944
-878 1743 -1815 1979 -111 28 -234 51 -333 62 -83 10 -434 12 -506 3 -192 -23
-194 -24 -330 -56 -110 -26 -287 -83 -378 -122 -26 -11 -51 -21 -55 -22 -4 -1
-40 -19 -79 -39 -42 -22 -73 -32 -73 -25 0 18 57 215 75 260 21 52 35 86 45
106 5 9 11 32 14 50 8 43 -11 69 -55 74 -28 4 -47 -4 -109 -46z"/>
</g>
</svg>
